# xmcd
#
# Track frame offsets: 
#        150
#        12332
#        24912
#        38368
#        50074
#        62396
#        73296
#        84462
#        97644
#        109656
#        124285
#        137054
#        148842
#        160145
#        171855
#        183690
#        195695
#        206271
#        218996
#        229853
#
# Disc length: 3194 seconds
#
# Revision: 0
# Processed by: cddbd v1.5.2PL0 Copyright (c) Steve Scherf et al.
# Submitted via: ExactAudioCopy v1.0b1
#
DISCID=170c7814
DTITLE=Various Artist - Kickin' Country [CD1)
DYEAR=2017
DGENRE=Country
TTITLE0=Bob Wills and His Texas Playboys - Cotton Eyed Joe
TTITLE1=Milton Brown and His Musical Brownies - Down By The O-H-I-O
TTITLE2=Lefty Frizzell - If You've Got The Money I've Got The Time
TTITLE3=Tennessee Ernie Ford - Shot Gun Boogie
TTITLE4=Merl Lindsay - Shimmy Shakin' Daddy
TTITLE5=Maddox Brothers and Rose - Honky Tonkin'
TTITLE6=Andy Reynolds and His 101 Ranch Boys - Beer Bottle Mama
TTITLE7=Johnny Bond and His Red River Valley Boys - Mean Mama Boogie
TTITLE8=Flatt and Scruggs - Foggy Mountain Breakdown
TTITLE9=Leake County Revelers - Mississippi Breakdown
TTITLE10=Bill Boyd and His Cowboy Ramblers - Barn Dance Rag
TTITLE11=Tune Wranglers - Up Jumped The Devil
TTITLE12=Spade Cooley - Chew Tobacco Rag
TTITLE13=Iry Lejeune - Evangeline Special
TTITLE14=Sheb Wooley - Hoot Owl Boogie
TTITLE15=Billy Walker - Mexican Joe
TTITLE16=Merrill E.Moore - House Of Blue Lights
TTITLE17=Tillman Franks and His Rainbow Boys (Faron Young Vcl) - Hot Rod
TTITLE17=Shotgun Boogie #2  
TTITLE18=Charlene Arthur - Looking At The Moon Wishing On A Star
TTITLE19=Ray Anderson And The Home Folks - Sputniks And Mutniks
EXTD=
EXTT0=
EXTT1=
EXTT2=
EXTT3=
EXTT4=
EXTT5=
EXTT6=
EXTT7=
EXTT8=
EXTT9=
EXTT10=
EXTT11=
EXTT12=
EXTT13=
EXTT14=
EXTT15=
EXTT16=
EXTT17=
EXTT18=
EXTT19=
PLAYORDER=
